<?xml version="1.0" encoding="UTF-8"?>
<svg id="uuid-e9913b41-f2ba-4c64-a999-2e1bfc483f47" data-name="Vrstva 1" xmlns="http://www.w3.org/2000/svg" viewBox="0 0 500 500">
  <path d="M84.98,0L0,84.98v415.02h415.02l84.98-84.98V0H84.98Z" style="fill: #95c11f; stroke-width: 0px;"/>
  <g>
    <path d="M394.48,211.51c-1.9,4.33-3.34,8.95-5.81,12.93-3.42,5.51-8.88,8.78-14.33,10.64,2.59,8.16,5.84,16.02,7.55,24.2,5.08,24.32.98,47.47-13.23,67.72-8.95,12.75-13.56,27.04-19.27,41.03-4.72,11.54-9.05,23.25-13.56,34.87-1.77,4.57-3.87,6.02-8.71,6.03-7.24.01-14.49,0-21.73,0-6.33,0-8.83-2.26-9.59-8.55-.78-6.43-1.59-12.86-2.41-19.28-.08-.64-.31-1.27-.57-2.28-23.61,5.47-47.21,5.55-71.09-.23-.76,5.64-1.49,11.11-2.22,16.57-.33,2.42-.57,4.85-1.02,7.25-.76,4.08-3.21,6.42-7.3,6.49-8.28.14-16.56.13-24.83.01-3.81-.05-6.11-2.28-7.46-5.82-8.04-20.92-16.07-41.83-24.33-62.66-1.2-3.03-3.19-6-5.52-8.27-13.06-12.74-26.3-25.3-39.58-37.81-2.53-2.38-3.65-5.01-3.66-8.43-.02-14.86-.18-29.72-.26-44.59-.03-5.32,2.79-7.84,8.08-8.4,8-.86,15.98-2,23.89-3.47,2.18-.41,4.35-2.12,6.03-3.74,5.47-5.29,10.66-10.88,16.09-16.23,1.49-1.47,2.32-3.04,1.88-4.98-1.75-7.75-3.5-15.5-5.53-23.18-.9-3.43-2.44-6.69-3.71-10.02-2.19-5.7-.28-9.55,5.55-11.16,13.75-3.78,26.25-.4,37.82,7.06,4.78,3.09,8.96,7.12,13.51,10.59.8.61,2.25,1.05,3.15.76,18.87-5.98,38.19-8.26,57.86-6.44,33.9,3.13,63.6,15.58,87.36,40.62,2.13,2.25,4.21,4.59,5.97,7.13,1.33,1.92,2.87,2.13,4.83,1.73,6.35-1.3,11.37-7.18,11.58-13.57.24-7.25-3.98-13.33-10.59-15.13-1.34-.37-2.77-.5-4.16-.6-4.27-.32-7.36-3.47-7.26-7.48.1-4.02,3.33-7.06,7.59-7.14,13.21-.24,25.45,9.78,28.47,23.29.12.52.38,1,.58,1.5v9.03ZM309.82,394.38c3.79,0,7.36-.15,10.91.05,2.16.12,3.09-.66,3.84-2.64,5.16-13.58,10.52-27.08,15.68-40.67,4.16-10.95,8.76-21.44,15.68-31.2,12.66-17.85,16.25-38.16,11.38-59.58-4.37-19.23-15.16-34.6-30.24-46.98-18.59-15.26-40.14-23.48-63.91-26.24-20.59-2.4-40.64-.23-60.18,6.69-5.69,2.02-7.29,1.67-11.42-2.77-5.61-6.03-11.78-11.33-19.38-14.75-4.2-1.89-8.57-3.02-12.65-3.07,2.08,8.93,4.47,17.69,6.1,26.6,1.43,7.81.11,15.02-6.44,20.72-4.74,4.12-9.25,8.62-13.25,13.45-4.97,6.01-11.33,9.16-18.65,10.71-5.57,1.18-11.22,1.94-16.97,2.92-.04.24-.17.6-.16.95.06,11.47.08,22.95.26,34.42.02,1.04.78,2.29,1.58,3.05,11.93,11.47,23.85,22.95,35.94,34.25,4.9,4.58,8.51,9.75,10.88,16.11,6.93,18.62,14.24,37.11,21.48,55.62.37.93,1.44,2.21,2.24,2.25,4.02.23,8.06.11,12.18.11.24-1.16.51-2.15.64-3.15.98-7.54,1.93-15.08,2.92-22.62.56-4.23,3.84-6.87,8.08-6.43,1.38.14,2.73.62,4.08.99,24.25,6.77,48.59,7.2,72.82.27,9.53-2.73,13.03.22,13.8,9.63.58,7.08,1.81,14.1,2.77,21.31Z" style="fill: #fff; stroke-width: 0px;"/>
    <path d="M316.06,223.51c.02,5.23-5.79,8.24-11.28,5.48-6.51-3.27-12.98-6.89-19.87-9.08-21.55-6.85-42.9-5.64-63.74,3.28-5.07,2.17-9.44.83-11.09-3.45-1.46-3.8.19-7.54,4.26-9.45,8.89-4.18,18.25-6.88,27.95-8.19,21.36-2.88,41.9-.06,61.35,9.49,3.11,1.53,6.09,3.33,9.04,5.14,2.23,1.36,3.4,3.44,3.37,6.79Z" style="fill: #fff; stroke-width: 0px;"/>
    <path d="M189.1,239.59c.04,4.13-3.17,7.43-7.21,7.42-3.86-.02-7.17-3.31-7.25-7.19-.08-3.98,3.31-7.41,7.31-7.4,3.94.01,7.12,3.2,7.16,7.17Z" style="fill: #fff; stroke-width: 0px;"/>
    <path d="M292.38,157.74c-18.4,0-33.38-14.97-33.38-33.38s14.97-33.38,33.38-33.38,33.38,14.97,33.38,33.38-14.97,33.38-33.38,33.38ZM292.38,103.95c-11.26,0-20.42,9.16-20.42,20.42s9.16,20.42,20.42,20.42,20.42-9.16,20.42-20.42-9.16-20.42-20.42-20.42Z" style="fill: #fff; stroke-width: 0px;"/>
  </g>
</svg>