<?xml version="1.0" encoding="UTF-8"?>
<svg id="uuid-86863c0a-12ed-48bf-a522-4d9674404a9a" data-name="Vrstva 1" xmlns="http://www.w3.org/2000/svg" viewBox="0 0 490 500">
  <path d="M84.98,0L0,84.98v415.02h415.02l74.98-84.98V0H84.98Z" style="fill: #95c11f; stroke-width: 0px;"/>
  <g>
    <path d="M123.24,165.67c-17.24-5.39-17.79-28.57-10.31-38.57,3.38-4.51,7.6-7.01,13.45-6.98,20.69.12,41.38.08,62.07-.02,1.89,0,3.97-.53,5.63-1.43,17.25-9.3,34.44-18.71,51.62-28.13,5.26-2.88,10.77-4.31,16.83-4.3,37.38.09,74.77.05,112.16.05,1.39,0,2.79,0,4.65,0,0-2.04-.07-3.87.01-5.7.15-3.39,2.17-5.54,5.54-5.55,15.05-.07,30.1-.06,45.14,0,3.57.01,5.7,2.16,5.7,5.75.04,24.34.04,48.68,0,73.02,0,3.76-2.15,5.84-5.97,5.85-14.81.05-29.63.05-44.44,0-3.95-.01-5.92-2.13-6-6.19-.04-1.76,0-3.53,0-5.29,0-1.64,0-3.27,0-5.17h-11.05c-2.95,16.8-12.89,26.36-30.33,28.28,2.83,9.68,5.64,19.32,8.47,28.97,4.91,16.75,9.89,33.49,14.71,50.27.77,2.67,1.21,5.53,1.21,8.3.07,53.03.05,106.05.05,159.08,0,5.31-1.82,7.09-7.24,7.09-83.59,0-167.17,0-250.76,0-5.56,0-7.26-1.75-7.26-7.41,0-53.03-.03-106.06.07-159.08,0-3.45.75-7,1.73-10.33,8-27.44,16.14-54.83,24.32-82.49ZM135.42,165.48c-.31.85-.67,1.69-.93,2.57-8.24,27.86-16.51,55.71-24.63,83.6-.9,3.11-1.39,6.45-1.4,9.68-.09,49.38-.06,98.76-.06,148.13v3.97h186.27c0-1.68,0-3.08,0-4.49,0-49.85,0-99.7.02-149.54,0-2.1-.01-4.29.55-6.28,3.6-12.85,7.34-25.67,11.08-38.48,3.61-12.34,7.28-24.66,11.13-37.69-1.61,1.2-2.64,1.92-3.63,2.69-7.7,5.98-15.31,12.09-23.11,17.94-14.45,10.84-34.44,4.26-39.43-12.82-1.95-6.67-.77-12.96,2.28-19.28h-118.14ZM216.72,119.41c.08.26.16.51.24.77,1.26,0,2.52,0,3.77,0,26.1,0,52.19.02,78.29-.03,2.98,0,5.42.66,6.56,3.61,1.12,2.92-.2,5.13-2.28,7.2-12.34,12.27-24.6,24.61-36.94,36.88-3.19,3.17-4.94,6.86-4.49,11.37,1.1,10.93,12.91,15.99,21.87,9.28,8.27-6.2,16.79-12.18,24.39-19.14,8.24-7.55,17.12-10.66,28.34-9.86,11.48.83,19.48-7.42,20.26-18.9.39-5.76,3.79-9.05,9.49-9.1,4.3-.04,8.6,0,12.82,0v-33.74c-.63-.06-.97-.12-1.32-.12-38.56,0-77.11-.05-115.67.07-2.84,0-5.97.62-8.47,1.91-12.38,6.43-24.59,13.18-36.86,19.82ZM351.11,405.71v-3.37c0-47.39.02-94.79-.05-142.18,0-2.42-.5-4.91-1.18-7.25-5.31-18.34-10.73-36.66-16.11-54.98-1.63-5.54-3.26-11.07-4.89-16.61-.89.69-1.1,1.31-1.29,1.93-5.59,18.88-11.28,37.72-16.71,56.65-1.96,6.84-4.66,13.84-4.72,20.78-.42,46.92-.22,93.85-.21,140.77,0,1.11.09,2.22.18,4.16,5.16-5.22,9.7-9.95,14.41-14.5,1.75-1.68,2.41-3.4,2.4-5.83-.08-38.57-.05-77.15-.05-115.72,0-1.06-.07-2.12.03-3.17.29-3.06,2.63-5.12,5.67-5.09,3.04.03,5.29,2.12,5.55,5.22.09,1.05.03,2.12.03,3.17,0,38.57-.01,77.15.05,115.72,0,1.5.34,3.41,1.28,4.42,4.8,5.16,9.86,10.08,15.6,15.87ZM286.45,131.76c-1.05-.21-1.17-.25-1.28-.25-52.75-.02-105.51-.06-158.26.08-1.7,0-4.08,1.49-4.97,2.99-3.08,5.19-2.91,10.72-.27,16.15,1.14,2.34,2.93,3.36,5.63,3.36,44.77-.05,89.53-.03,134.3-.07,1.08,0,2.5-.19,3.2-.87,7.14-6.91,14.16-13.95,21.65-21.39ZM424.24,148.4v-61.82h-33.45v61.69c.73.05,1.29.13,1.85.13,10.45,0,20.89,0,31.59,0ZM329.36,400.27c-4.72,4.71-9.27,9.25-13.17,13.14h26.29c-4.76-4.77-9.24-9.25-13.12-13.14Z" style="fill: #fff; stroke-width: 0px;"/>
    <path d="M187.43,272.39c0-5.43-.03-10.7,0-15.96.03-4.18,2.15-6.5,5.77-6.42,3.41.07,5.47,2.4,5.49,6.35.04,7.05.07,14.11-.04,21.16-.02,1.46-.44,3.02-1.06,4.36-1.88,4.04-3.57,8.25-6.02,11.93-3.78,5.68-3.89,11.73-3.37,18.14,1.46,18.03,2.63,36.08,4.1,54.11.99,12.21-8.69,20.38-18.47,19.45-2.68-.26-5.4-.02-8.11-.04-9.72-.08-17.39-7.56-16.98-17.3.48-11.61,1.55-23.2,2.38-34.8.72-10.08,1.47-20.15,2.16-30.23.05-.67-.17-1.38-.39-2.03-.22-.66-.49-1.34-.89-1.91-8.78-12.9-11.27-27.2-9.79-42.5.41-4.24,2.03-6.62,5.55-6.7,3.71-.08,5.76,2.3,5.78,6.77.02,5.14,0,10.29,0,15.61h11.3c0-5.42.03-10.89-.01-16.36-.02-3.14,1.43-5.2,4.43-5.93,3.61-.88,6.76,1.68,6.84,5.58.1,5.5.03,11,.03,16.69h11.3ZM164.77,306.6c-.18,1-.44,1.91-.51,2.83-1.39,19.44-2.78,38.87-4.1,58.32-.25,3.73,2.08,6.23,5.9,6.42,2.93.14,5.88.14,8.81,0,3.98-.19,6.2-2.76,5.92-6.73-1.1-15.93-2.21-31.85-3.34-47.78-.31-4.31-.72-8.62-1.09-13.05h-11.59ZM157.56,283.97q3.97,11.2,14.89,11.2c1.41,0,2.83.11,4.22-.05.71-.08,1.71-.45,2-1,1.72-3.24,3.28-6.58,5.03-10.16h-26.13Z" style="fill: #fff; stroke-width: 0px;"/>
    <path d="M249.51,289.43c0,7.41-.34,14.83.07,22.21.78,13.94,1.98,27.85,3.05,41.77.37,4.8,1.05,9.58,1.3,14.38.51,9.82-7.01,17.6-16.9,17.68-3.06.02-6.11.03-9.17,0-9.62-.11-17.32-8-16.61-17.6.87-11.82,2.22-23.61,3.36-35.41.16-1.64.3-3.27.43-4.91.5-6.29.54-6.37-5.32-9.15-3.31-1.57-5.83-3.42-5.35-7.64,1.74-15.38,4.95-30.34,12.98-43.82,4.9-8.24,11.45-14.59,21.33-16.48,1.49-.28,3.02-.42,4.54-.43,4.19-.01,6.26,2.02,6.28,6.24.04,11.05.01,22.1.01,33.15ZM238.05,262.63c-5.5,2.11-8.67,6.25-11.32,10.82-5.98,10.31-8.51,21.73-10.25,33.35-.14.95,1.22,2.52,2.27,3.17,3.37,2.1,7.82,2.87,8.48,7.57h10.82v-54.91ZM226.43,329.17c-1.08,11.2-1.73,22.09-3.28,32.86-1.5,10.45.29,12.62,10.85,12.22,7.29-.27,9.17-2.25,8.33-9.46-.76-6.52-1.32-13.06-2-19.59-.55-5.32-1.14-10.64-1.72-16.03h-12.19Z" style="fill: #fff; stroke-width: 0px;"/>
  </g>
</svg>