<?xml version="1.0" encoding="UTF-8"?>
<svg id="uuid-6382b4b5-0706-4d20-8559-3376ad541e60" data-name="Vrstva 1" xmlns="http://www.w3.org/2000/svg" viewBox="0 0 500 500">
  <path d="M84.98,0L0,84.98v415.02h415.02l84.98-84.98V0H84.98Z" style="fill: #95c11f; stroke-width: 0px;"/>
  <g>
    <path d="M378.29,242.07c8.09,7.07,12.21,15.83,11.38,26.53-.58,7.51-3.33,14.45-7.48,20.6-5.94,8.8-12.31,17.32-18.67,25.82-2.81,3.75-4.35,7.5-4.24,12.42.34,15.3.14,30.62.12,45.93-.02,11.38-7.92,19.24-19.34,19.25-19.33.02-38.66-.06-57.99.1-2.12.02-4.6.82-6.3,2.09-19.47,14.61-40.24,26.58-64.58,30.76-8.49,1.46-17.28,2.49-25.82,1.93-9.42-.62-16.77,1.81-22.78,8.86-.59.69-1.23,1.36-1.96,1.87-3.34,2.32-8.18,1.14-9.39-2.71-4.23-13.47-13.38-23.82-21.54-34.81-9.92-13.36-22.59-23.49-37.07-31.47-2.57-1.41-4.33-3.21-4.21-6.39.13-3.19,2.02-4.88,4.74-5.98,5.61-2.28,7.84-6.44,8.82-12.48,3.22-19.91,6.93-39.74,10.87-59.51,1.58-7.92,6.7-14.16,11.6-20.43,5.43-6.92,10.89-13.88,15.62-21.27,6.38-9.96,7.28-21.66,9.27-33,1.13-6.47,2.49-12.99,4.62-19.19,4.53-13.14,14.06-16.59,26.4-10.11,1.36.71,2.66,1.53,4.69,2.7v-4.46c0-28.16,0-56.31,0-84.47,0-11.93,7.75-19.65,19.71-19.65,45.01,0,90.03,0,135.04,0,11.89,0,19.58,7.78,19.59,19.78,0,27.51,0,55.01,0,82.52,0,1.41,0,2.83,0,4.57,1.97-.36,3.67-.79,5.4-.97,18.39-1.94,30.74,12.26,25.95,30.64-2.17,8.31-6.08,16.16-9.3,24.19-.86,2.14-2.05,4.14-3.16,6.33ZM234.45,87.45c-9.45,0-18.77,0-28.1,0-6.78,0-8.85,2.05-8.86,8.78,0,91.72,0,183.44,0,275.16,0,6.72,2.08,8.78,8.86,8.78,43.84,0,87.68,0,131.52,0,7.04,0,9.06-2,9.07-8.97,0-20.63,0-41.26,0-61.88,0-70.96,0-141.93,0-212.89,0-6.99-2.02-8.97-9.05-8.98-6.87,0-13.75,0-20.62,0-2.53,0-5.05,0-7.69,0,0,2.44.01,4.26,0,6.07-.07,10.85-8.06,18.81-18.97,18.83-12.45.03-24.9.04-37.36,0-8.25-.03-15.45-5.31-17.55-13.31-.93-3.56-.83-7.38-1.25-11.59ZM255.09,392.81c-1.25,0-2.51,0-3.76,0-15.04,0-30.1-.38-45.13.11-14.41.47-21.35-10.63-21.28-21.2.34-50.2.22-100.4.03-150.6-.02-6.02-1.14-12.11-2.35-18.05-1.11-5.44-4.2-9.66-9.75-11.7-4.1-1.5-5.42-1.28-6.69,2.97-1.81,6.05-3.07,12.26-4.51,18.42-2.23,9.54-3.74,19.31-6.78,28.58-3.99,12.15-12.63,21.6-20.71,31.23-4.28,5.1-8.3,10.43-9.63,17.08-3.09,15.46-5.85,30.99-8.82,46.48-1.77,9.23-.4,19.46-8.94,26.8,23.7,14.63,38.9,36.29,52.99,59,6.65-5.44,14.04-7.62,22.53-6.83,11.86,1.11,23.47-.55,34.94-3.74,13.7-3.81,26.37-9.68,37.86-18.57ZM359.4,236.05c1.25.11,2.22-.03,3.01.29,3.35,1.37,4.88-.32,6.12-3.16,2.49-5.69,5.57-11.15,7.64-16.97,1.53-4.3,2.43-9.02,2.57-13.58.17-5.41-5.41-9.58-11.29-9.31-5.76.26-8.05,2.89-8.05,9.25,0,1.95,0,3.89,0,5.84,0,9.19,0,18.37,0,27.65ZM359.74,249.17v50.31c6.65-8.9,13.35-16.84,16.32-27.04,3.75-12.89-3.6-23.42-16.32-23.26ZM297.13,87.72h-49.81c0,1.94-.07,3.62.01,5.29.21,4.29,2.56,6.83,6.82,6.87,12.05.11,24.1.11,36.16,0,4.25-.04,6.6-2.59,6.81-6.88.08-1.67.01-3.35.01-5.28Z" style="fill: #fff; stroke-width: 0px;"/>
    <path d="M272.2,212.02c18.15,0,36.29,0,54.44,0,5.9,0,7.83,1.97,7.85,7.95.01,3.63.03,7.26,0,10.89-.1,10.35-8.15,18.49-18.49,18.5-29.16.04-58.33.04-87.49,0-10.36-.01-18.44-8.13-18.53-18.46-.03-3.89-.03-7.78,0-11.67.04-5.11,2.17-7.2,7.4-7.21,18.28-.02,36.55,0,54.83,0ZM222.76,224.67c-1.27,9.93.7,12.26,10.19,12.26,16.73,0,33.45,0,50.18,0,10.37,0,20.74.03,31.12-.01,4.96-.02,7.5-2.25,7.77-6.72.11-1.77.02-3.56.02-5.52h-99.27Z" style="fill: #fff; stroke-width: 0px;"/>
    <path d="M272.23,174.64c-18.15,0-36.29,0-54.44,0-5.88,0-7.89-2.07-7.82-7.96.23-18.51,16.88-35.38,35.42-35.56,17.88-.18,35.77-.18,53.66,0,18.72.19,35.33,17.18,35.43,35.94.03,5.39-2.07,7.58-7.42,7.59-18.28.02-36.55,0-54.83,0ZM321.07,162.02c-.63-1.71-1-3.22-1.7-4.55-4.86-9.23-12.66-13.84-22.97-13.93-16.08-.14-32.16-.07-48.24,0-2.31.01-4.67.32-6.92.83-8.79,2-16.79,10.25-17.28,17.65h97.12Z" style="fill: #fff; stroke-width: 0px;"/>
    <path d="M217.99,183.24c3.85,1.36,7.94,2.28,11.49,4.19,6.15,3.32,11.9,3.48,18.02.05,8.93-5,18.09-4.98,27.02-.03,5.99,3.32,11.62,3.4,17.63.05,9.05-5.04,18.2-4.81,27.44-.09,2.8,1.43,6.04,2.13,9.16,2.75,3.59.71,5.89,3.08,5.73,6.6-.15,3.3-2.6,6.17-5.99,5.76-4.53-.55-9.33-1.25-13.33-3.25-6.53-3.27-12.34-3.4-18.74.14-8.66,4.79-17.67,4.71-26.32-.12-6.27-3.5-12.09-3.43-18.34.05-8.66,4.83-17.52,4.51-26.39.15-2.63-1.29-5.47-2.42-8.33-2.93-5.05-.9-7.36-2.86-7.07-6.88.28-3.78,2.94-5.74,8.01-6.45Z" style="fill: #fff; stroke-width: 0px;"/>
    <path d="M264.94,315.04c9.4-9.44,18.44-18.53,27.49-27.6,1-1.01,1.98-2.1,3.15-2.87,2.83-1.87,5.73-1.75,8.12.69,2.38,2.43,2.58,5.27.51,8.08-.61.83-1.35,1.57-2.09,2.3-10.34,10.36-20.68,20.72-31.05,31.05-4.72,4.71-7.46,4.72-12.09.11-5.87-5.85-11.74-11.71-17.58-17.59-3.41-3.43-3.82-7.13-1.19-9.9,2.77-2.92,6.58-2.57,10.16,1.01,4.76,4.76,9.47,9.57,14.56,14.72Z" style="fill: #fff; stroke-width: 0px;"/>
  </g>
</svg>