<?xml version="1.0" encoding="UTF-8"?>
<svg id="uuid-1985ca7b-629b-48a8-afb5-9b455e6244a6" data-name="Vrstva 1" xmlns="http://www.w3.org/2000/svg" viewBox="0 0 426.66 106.42">
  <g>
    <path d="M156.61,51.3h-3.36l-15.09-20.77-5.25,4.63v16.14h-2.74V11.97h2.74v20.45l4.36-4.36,15.41-16.09h3.5l-16.11,16.63,16.54,22.71Z" style="fill: #878787; stroke-width: 0px;"/>
    <path d="M181.12,37.42h-15.98l-5.49,13.88h-3.04l15.82-39.49h1.75l15.5,39.49h-3.09l-5.46-13.88ZM166.14,34.95h14.07l-5.35-14.18c-.45-1.11-.99-2.65-1.61-4.63-.48,1.72-1.01,3.28-1.59,4.68l-5.51,14.12Z" style="fill: #878787; stroke-width: 0px;"/>
    <path d="M223.84,51.3h-2.77l-23.3-34.92h-.22c.22,4.16.32,7.3.32,9.42v25.5h-2.64V11.97h2.74l23.27,34.86h.16c-.16-3.23-.24-6.29-.24-9.2V11.97h2.66v39.33Z" style="fill: #878787; stroke-width: 0px;"/>
    <path d="M245.23,51.3h-2.77V14.55h-12.78v-2.58h28.33v2.58h-12.78v36.75Z" style="fill: #878787; stroke-width: 0px;"/>
    <path d="M272.88,33.49l11.51-21.52h2.96l-13.1,24.13v15.2h-2.82v-14.98l-13.16-24.35h3.15l11.46,21.52ZM269.95,8.39c1.31-1.42,2.6-2.95,3.89-4.61,1.28-1.66,2.16-2.92,2.62-3.78h3.79v.46c-.65.93-1.74,2.17-3.29,3.71-1.55,1.54-3.26,3.09-5.12,4.65h-1.88v-.43Z" style="fill: #878787; stroke-width: 0px;"/>
    <path d="M321.52,51.3h-2.77l-23.3-34.92h-.22c.22,4.16.32,7.3.32,9.42v25.5h-2.64V11.97h2.74l23.27,34.86h.16c-.16-3.23-.24-6.29-.24-9.2V11.97h2.66v39.33Z" style="fill: #878787; stroke-width: 0px;"/>
    <path d="M351.6,37.42h-15.98l-5.49,13.88h-3.04l15.82-39.49h1.75l15.5,39.49h-3.09l-5.46-13.88ZM336.62,34.95h14.07l-5.35-14.18c-.45-1.11-.99-2.65-1.61-4.63-.48,1.72-1.01,3.28-1.59,4.68l-5.51,14.12Z" style="fill: #878787; stroke-width: 0px;"/>
  </g>
  <g>
    <path d="M160.03,105.88h-4.57v-18.51h-20.71v18.51h-4.57v-39.33h4.57v16.73h20.71v-16.73h4.57v39.33Z" style="fill: #95c11f; stroke-width: 0px;"/>
    <path d="M206.06,86.16c0,6.29-1.59,11.25-4.78,14.85s-7.61,5.41-13.28,5.41-10.26-1.77-13.41-5.31c-3.15-3.54-4.72-8.54-4.72-15s1.58-11.37,4.74-14.89c3.16-3.52,7.64-5.29,13.45-5.29s10.06,1.79,13.24,5.38c3.17,3.59,4.76,8.54,4.76,14.85ZM174.72,86.16c0,5.33,1.13,9.37,3.4,12.12,2.27,2.75,5.56,4.13,9.89,4.13s7.65-1.37,9.87-4.12c2.22-2.74,3.34-6.79,3.34-12.13s-1.11-9.3-3.32-12.04c-2.21-2.73-5.49-4.1-9.83-4.1s-7.67,1.38-9.94,4.13c-2.27,2.75-3.4,6.76-3.4,12.01Z" style="fill: #95c11f; stroke-width: 0px;"/>
    <path d="M238.13,95.41c0,3.46-1.26,6.16-3.77,8.1-2.51,1.94-5.92,2.91-10.22,2.91-4.66,0-8.25-.6-10.76-1.8v-4.41c1.61.68,3.37,1.22,5.27,1.61,1.9.4,3.78.59,5.65.59,3.05,0,5.34-.58,6.89-1.73,1.54-1.16,2.31-2.77,2.31-4.83,0-1.36-.27-2.48-.82-3.35-.55-.87-1.46-1.67-2.74-2.41s-3.23-1.57-5.85-2.5c-3.66-1.31-6.27-2.86-7.84-4.65-1.57-1.79-2.35-4.13-2.35-7.02,0-3.03,1.14-5.44,3.42-7.24,2.28-1.79,5.29-2.69,9.04-2.69s7.51.72,10.79,2.15l-1.43,3.98c-3.25-1.36-6.4-2.04-9.47-2.04-2.42,0-4.31.52-5.68,1.56s-2.04,2.48-2.04,4.33c0,1.36.25,2.48.75,3.35s1.35,1.67,2.54,2.39c1.19.73,3.02,1.53,5.47,2.41,4.12,1.47,6.96,3.05,8.51,4.73,1.55,1.69,2.33,3.87,2.33,6.56Z" style="fill: #95c11f; stroke-width: 0px;"/>
    <path d="M259.38,105.88h-4.57v-35.27h-12.46v-4.06h29.48v4.06h-12.46v35.27Z" style="fill: #95c11f; stroke-width: 0px;"/>
    <path d="M278.85,105.88v-39.33h4.57v39.33h-4.57Z" style="fill: #95c11f; stroke-width: 0px;"/>
    <path d="M317.78,66.55h4.92l-14.18,39.33h-4.52l-14.1-39.33h4.84l9.04,25.45c1.04,2.92,1.87,5.77,2.48,8.53.65-2.91,1.49-5.8,2.53-8.69l8.99-25.29Z" style="fill: #95c11f; stroke-width: 0px;"/>
    <path d="M353.93,105.88l-4.9-12.51h-15.76l-4.84,12.51h-4.63l15.55-39.49h3.85l15.47,39.49h-4.73ZM347.61,89.25l-4.57-12.19c-.59-1.54-1.2-3.43-1.83-5.68-.39,1.72-.96,3.61-1.69,5.68l-4.63,12.19h12.72Z" style="fill: #95c11f; stroke-width: 0px;"/>
    <path d="M369.75,89.52v16.36h-4.57v-39.33h10.79c4.82,0,8.39.92,10.69,2.77,2.3,1.85,3.46,4.63,3.46,8.34,0,5.2-2.64,8.72-7.91,10.54l10.68,17.67h-5.41l-9.52-16.36h-8.21ZM367.7,54.58h3.09c2.04,1.33,4.01,3.02,5.89,5.08,2.33-2.33,4.31-4.03,5.95-5.08h3.2v.67l-1.78,1.83c-2.58,2.65-4.29,4.76-5.11,6.32h-4.47c-.41-.74-1.08-1.67-1.99-2.8s-2.51-2.91-4.79-5.35v-.67ZM369.75,85.59h6.27c3.23,0,5.59-.64,7.1-1.92s2.26-3.21,2.26-5.77-.77-4.47-2.3-5.62c-1.53-1.15-4-1.72-7.38-1.72h-5.95v15.04Z" style="fill: #95c11f; stroke-width: 0px;"/>
  </g>
  <rect x="38.67" y="74.21" width="30.25" height="4.94" style="fill: #95c11f; stroke-width: 0px;"/>
  <path d="M68.89,33.66h-.75c-1.76.25-3.52.75-5.03,1.76-.5-1.76-1.51-3.27-2.77-4.28-1.76-1.51-4.03-2.52-6.54-2.52s-4.78,1.01-6.54,2.52c-1.51,1.26-2.26,2.52-3.02,4.28-1.26-1.01-3.02-1.51-4.78-1.76h-.76c-5.54,0-10.06,4.53-10.06,10.07s4.53,10.06,10.06,10.06v17.62h30.2v-17.62c5.54,0,10.07-4.53,10.07-10.06s-4.53-10.07-10.07-10.07" style="fill: #95c11f; stroke-width: 0px;"/>
  <path d="M73.93,58.07v23.4c0,1.51-1.01,2.52-2.52,2.52h-35.23c-1.51,0-2.52-1.01-2.52-2.52v-23.4c-5.79-2.26-10.07-7.8-10.07-14.34,0-8.31,6.79-15.1,15.1-15.1,1.26,0,2.27.25,3.52.5,2.77-3.52,6.79-5.54,11.58-5.54s8.81,2.01,11.57,5.54c1.26-.25,2.26-.5,3.52-.5,8.31,0,15.1,6.79,15.1,15.1,0,6.54-4.28,12.08-10.07,14.34M18.09,0L0,18.09v88.33h88.33l18.09-18.09V0H18.09Z" style="fill: #95c11f; stroke-width: 0px;"/>
</svg>