<?xml version="1.0" encoding="UTF-8"?>
<svg id="uuid-d43b167b-9c54-46a7-89ba-5141338c7b84" data-name="Vrstva 1" xmlns="http://www.w3.org/2000/svg" viewBox="0 0 427.52 106.45">
  <g>
    <path d="M160.52,78.04c0,3.98-1.36,7.04-4.08,9.19-2.72,2.14-6.6,3.21-11.66,3.21h-4.63v15.47h-4.57v-39.33h10.2c9.83,0,14.74,3.82,14.74,11.46ZM140.15,86.52h4.12c4.05,0,6.99-.65,8.8-1.96,1.81-1.31,2.72-3.41,2.72-6.29,0-2.6-.85-4.54-2.56-5.81s-4.36-1.91-7.96-1.91h-5.11v15.98Z" style="fill: #95c11f; stroke-width: 0px;"/>
    <path d="M200.59,105.91h-4.57v-18.51h-20.71v18.51h-4.57v-39.33h4.57v16.73h20.71v-16.73h4.57v39.33Z" style="fill: #95c11f; stroke-width: 0px;"/>
    <path d="M247.5,86.19c0,6.29-1.59,11.25-4.78,14.85s-7.61,5.41-13.28,5.41-10.26-1.77-13.41-5.31c-3.15-3.54-4.72-8.54-4.72-15s1.58-11.37,4.74-14.89c3.16-3.52,7.64-5.29,13.45-5.29s10.06,1.79,13.24,5.38c3.17,3.59,4.76,8.54,4.76,14.85ZM216.16,86.19c0,5.33,1.13,9.37,3.4,12.12,2.27,2.75,5.56,4.13,9.89,4.13s7.65-1.37,9.87-4.12c2.22-2.74,3.34-6.79,3.34-12.13s-1.11-9.3-3.32-12.04c-2.21-2.73-5.49-4.1-9.83-4.1s-7.67,1.38-9.94,4.13c-2.27,2.75-3.4,6.76-3.4,12.01Z" style="fill: #95c11f; stroke-width: 0px;"/>
    <path d="M280.18,105.91h-21.92v-39.33h21.92v4.06h-17.35v12.67h16.3v4.04h-16.3v14.47h17.35v4.09Z" style="fill: #95c11f; stroke-width: 0px;"/>
    <path d="M321.6,105.91h-5.22l-21.49-33.01h-.22c.29,3.87.43,7.42.43,10.65v22.36h-4.22v-39.33h5.17l21.44,32.87h.22c-.04-.48-.12-2.04-.24-4.67-.13-2.63-.17-4.51-.13-5.64v-22.57h4.28v39.33Z" style="fill: #95c11f; stroke-width: 0px;"/>
    <path d="M334.4,105.91v-39.33h4.57v39.33h-4.57Z" style="fill: #95c11f; stroke-width: 0px;"/>
    <path d="M377.92,105.91h-5.19l-10.57-17.3-10.76,17.3h-4.84l13.07-20.55-12.19-18.78h5.06l9.77,15.58,9.85-15.58h4.87l-12.19,18.62,13.13,20.71Z" style="fill: #95c11f; stroke-width: 0px;"/>
  </g>
  <g>
    <rect x="38.67" y="74.25" width="30.25" height="4.94" style="fill: #95c11f; stroke-width: 0px;"/>
    <path d="M68.89,33.7h-.75c-1.76.25-3.52.75-5.03,1.76-.5-1.76-1.51-3.27-2.77-4.28-1.76-1.51-4.03-2.52-6.54-2.52s-4.78,1.01-6.54,2.52c-1.51,1.26-2.26,2.52-3.02,4.28-1.26-1.01-3.02-1.51-4.78-1.76h-.76c-5.54,0-10.06,4.53-10.06,10.07s4.53,10.06,10.06,10.06v17.62h30.2v-17.62c5.54,0,10.07-4.53,10.07-10.06s-4.53-10.07-10.07-10.07" style="fill: #95c11f; stroke-width: 0px;"/>
    <path d="M73.93,58.11v23.4c0,1.51-1.01,2.52-2.52,2.52h-35.23c-1.51,0-2.52-1.01-2.52-2.52v-23.4c-5.79-2.26-10.07-7.8-10.07-14.34,0-8.31,6.79-15.1,15.1-15.1,1.26,0,2.27.25,3.52.5,2.77-3.52,6.79-5.54,11.58-5.54s8.81,2.01,11.57,5.54c1.26-.25,2.26-.5,3.52-.5,8.31,0,15.1,6.79,15.1,15.1,0,6.54-4.28,12.08-10.07,14.34M18.09.04L0,18.12v88.33h88.33l18.09-18.09V.04H18.09Z" style="fill: #95c11f; stroke-width: 0px;"/>
  </g>
  <g>
    <path d="M154.68,37.42h-15.98l-5.49,13.88h-3.04l15.82-39.49h1.75l15.5,39.49h-3.09l-5.46-13.88ZM139.69,34.95h14.07l-5.35-14.18c-.45-1.11-.99-2.65-1.61-4.63-.48,1.72-1.01,3.28-1.59,4.68l-5.51,14.12Z" style="fill: #878787; stroke-width: 0px;"/>
    <path d="M171.55,34.17v17.14h-2.74V11.97h9.36c4.88,0,8.48.9,10.81,2.7,2.33,1.8,3.5,4.52,3.5,8.14,0,2.64-.7,4.86-2.08,6.67s-3.5,3.11-6.33,3.9l10.68,17.92h-3.28l-10.14-17.14h-9.77ZM171.55,31.8h7.51c3.32,0,5.89-.74,7.72-2.22s2.74-3.66,2.74-6.55-.9-5.17-2.69-6.54c-1.79-1.36-4.72-2.04-8.77-2.04h-6.51v17.35Z" style="fill: #878787; stroke-width: 0px;"/>
    <path d="M223.04,51.3h-21.5V11.97h21.5v2.53h-18.75v14.88h17.7v2.53h-17.7v16.87h18.75v2.53Z" style="fill: #878787; stroke-width: 0px;"/>
    <path d="M250.88,37.42h-15.98l-5.49,13.88h-3.04l15.82-39.49h1.75l15.5,39.49h-3.09l-5.46-13.88ZM235.9,34.95h14.07l-5.35-14.18c-.45-1.11-.99-2.65-1.61-4.63-.48,1.72-1.01,3.28-1.59,4.68l-5.51,14.12ZM239.93,8.39c1.31-1.42,2.6-2.95,3.89-4.61,1.28-1.66,2.16-2.92,2.62-3.78h3.79v.46c-.65.93-1.75,2.17-3.3,3.71-1.55,1.54-3.26,3.09-5.12,4.65h-1.88v-.43Z" style="fill: #878787; stroke-width: 0px;"/>
    <path d="M265,51.3V11.97h2.74v36.75h18.75v2.58h-21.5Z" style="fill: #878787; stroke-width: 0px;"/>
  </g>
</svg>