<?xml version="1.0" encoding="UTF-8"?>
<svg id="a" data-name="Vrstva 1" xmlns="http://www.w3.org/2000/svg" viewBox="0 0 1000 250">
  <g>
    <rect x="90.82" y="174.37" width="71.05" height="11.59" fill="#95c11f"/>
    <path d="M161.79,79.14h-1.77c-4.14.59-8.27,1.77-11.82,4.14-1.18-4.14-3.55-7.68-6.5-10.04-4.14-3.55-9.45-5.91-15.36-5.91s-11.23,2.37-15.37,5.91c-3.55,2.95-5.32,5.91-7.09,10.04-2.95-2.37-7.09-3.55-11.23-4.14h-1.78c-13,0-23.64,10.64-23.64,23.64s10.63,23.64,23.64,23.64v41.37h70.92v-41.37c13,0,23.64-10.63,23.64-23.64s-10.64-23.64-23.64-23.64" fill="#95c11f"/>
    <path d="M173.61,136.47v54.96c0,3.55-2.37,5.91-5.91,5.91h-82.74c-3.55,0-5.91-2.37-5.91-5.91v-54.96c-13.6-5.32-23.64-18.32-23.64-33.69,0-19.5,15.96-35.46,35.46-35.46,2.96,0,5.32.59,8.27,1.18,6.5-8.27,15.96-13,27.19-13s20.68,4.73,27.18,13c2.96-.59,5.32-1.18,8.27-1.18,19.5,0,35.46,15.95,35.46,35.46,0,15.37-10.05,28.37-23.64,33.69M42.48.08L0,42.56v207.44h207.44l42.48-42.48V.08H42.48Z" fill="#95c11f"/>
  </g>
  <g>
    <path d="M350.53,87.98h-37.42l-12.85,32.5h-7.12l37.04-92.47h4.09l36.28,92.47h-7.24l-12.79-32.5ZM315.45,82.19h32.94l-12.53-33.2c-1.05-2.6-2.31-6.21-3.78-10.83-1.13,4.03-2.37,7.69-3.72,10.96l-12.91,33.07Z" fill="#878787"/>
    <path d="M390.02,80.36v40.12h-6.42V28.39h21.92c11.42,0,19.86,2.11,25.32,6.33,5.46,4.22,8.19,10.57,8.19,19.05,0,6.17-1.63,11.38-4.88,15.62-3.25,4.24-8.2,7.29-14.83,9.13l25.01,41.95h-7.68l-23.75-40.12h-22.86ZM390.02,74.82h17.57c7.77,0,13.79-1.73,18.08-5.2,4.28-3.46,6.42-8.58,6.42-15.34s-2.1-12.11-6.3-15.31c-4.2-3.19-11.04-4.79-20.53-4.79h-15.24v40.63Z" fill="#878787"/>
    <path d="M510.58,120.48h-50.33V28.39h50.33v5.92h-43.9v34.83h41.45v5.92h-41.45v39.49h43.9v5.92Z" fill="#878787"/>
    <path d="M575.78,87.98h-37.42l-12.85,32.5h-7.12l37.04-92.47h4.09l36.28,92.47h-7.24l-12.79-32.5ZM540.69,82.19h32.94l-12.53-33.2c-1.05-2.6-2.31-6.21-3.78-10.83-1.13,4.03-2.37,7.69-3.72,10.96l-12.91,33.07ZM550.14,20.02c3.06-3.32,6.1-6.92,9.1-10.8,3-3.88,5.05-6.83,6.14-8.85h8.88v1.07c-1.51,2.18-4.08,5.08-7.72,8.69-3.63,3.61-7.63,7.24-12,10.9h-4.41v-1.01Z" fill="#878787"/>
    <path d="M608.85,120.48V28.39h6.42v86.04h43.9v6.05h-50.33Z" fill="#878787"/>
  </g>
  <g>
    <path d="M364.2,183.48c0,9.32-3.18,16.49-9.54,21.51-6.36,5.02-15.46,7.53-27.31,7.53h-10.83v36.22h-10.71v-92.09h23.87c23.01,0,34.52,8.94,34.52,26.83ZM316.52,203.32h9.64c9.49,0,16.36-1.53,20.6-4.6,4.24-3.06,6.36-7.98,6.36-14.74,0-6.09-1.99-10.62-5.98-13.61-3.99-2.98-10.2-4.47-18.64-4.47h-11.97v37.42Z" fill="#95c11f"/>
    <path d="M438.65,156.65h11.53l-33.19,92.09h-10.58l-33.01-92.09h11.34l21.16,59.59c2.43,6.84,4.37,13.5,5.79,19.97,1.51-6.8,3.49-13.58,5.92-20.34l21.04-59.21Z" fill="#95c11f"/>
    <path d="M531.93,248.74h-12.6l-33.57-44.66-9.64,8.57v36.09h-10.71v-92.09h10.71v45.67l41.76-45.67h12.66l-37.04,40,38.42,52.09Z" fill="#95c11f"/>
  </g>
</svg>