<?xml version="1.0" encoding="UTF-8"?>
<svg id="uuid-5c594254-42c7-4a0a-8a55-af6cab021c20" data-name="Vrstva 1" xmlns="http://www.w3.org/2000/svg" viewBox="0 0 426.66 106.45">
  <g>
    <path d="M135.58,66.58h11.11c5.22,0,8.99.78,11.33,2.34,2.33,1.56,3.5,4.03,3.5,7.4,0,2.33-.65,4.25-1.95,5.77-1.3,1.52-3.2,2.5-5.69,2.95v.27c5.97,1.02,8.96,4.16,8.96,9.42,0,3.52-1.19,6.26-3.56,8.23-2.38,1.97-5.7,2.96-9.97,2.96h-13.72v-39.33ZM140.15,83.42h7.53c3.23,0,5.55-.51,6.97-1.52,1.42-1.01,2.12-2.72,2.12-5.12,0-2.21-.79-3.8-2.37-4.78-1.58-.98-4.09-1.47-7.53-1.47h-6.73v12.89ZM140.15,87.3v14.72h8.21c3.17,0,5.56-.61,7.17-1.84,1.61-1.23,2.41-3.15,2.41-5.77,0-2.44-.82-4.23-2.46-5.38-1.64-1.15-4.14-1.72-7.49-1.72h-7.83Z" style="fill: #95c11f; stroke-width: 0px;"/>
    <path d="M207.4,86.2c0,6.29-1.59,11.25-4.78,14.85s-7.61,5.41-13.28,5.41-10.26-1.77-13.41-5.31c-3.15-3.54-4.72-8.54-4.72-15s1.58-11.37,4.74-14.89c3.16-3.52,7.64-5.29,13.45-5.29s10.06,1.79,13.24,5.38c3.17,3.59,4.76,8.54,4.76,14.85ZM176.06,86.2c0,5.33,1.13,9.37,3.4,12.12,2.27,2.75,5.56,4.13,9.89,4.13s7.65-1.37,9.87-4.12c2.22-2.74,3.34-6.79,3.34-12.13s-1.11-9.3-3.32-12.04c-2.21-2.73-5.49-4.1-9.83-4.1s-7.67,1.38-9.94,4.13c-2.27,2.75-3.4,6.76-3.4,12.01Z" style="fill: #95c11f; stroke-width: 0px;"/>
    <path d="M218.15,105.91v-39.33h4.57v35.19h17.35v4.14h-21.92Z" style="fill: #95c11f; stroke-width: 0px;"/>
    <path d="M270.66,105.91h-21.92v-39.33h21.92v4.06h-17.35v12.67h16.3v4.04h-16.3v14.47h17.35v4.09Z" style="fill: #95c11f; stroke-width: 0px;"/>
    <path d="M303.55,95.45c0,3.46-1.26,6.16-3.77,8.1-2.51,1.94-5.92,2.91-10.22,2.91-4.66,0-8.25-.6-10.76-1.8v-4.41c1.61.68,3.37,1.22,5.27,1.61,1.9.4,3.78.59,5.65.59,3.05,0,5.34-.58,6.89-1.73,1.54-1.16,2.31-2.77,2.31-4.83,0-1.36-.27-2.48-.82-3.35-.55-.87-1.46-1.67-2.74-2.41s-3.23-1.57-5.85-2.5c-3.66-1.31-6.27-2.86-7.84-4.65-1.57-1.79-2.35-4.13-2.35-7.02,0-3.03,1.14-5.44,3.42-7.24,2.28-1.79,5.29-2.69,9.04-2.69s7.51.72,10.79,2.15l-1.43,3.98c-3.25-1.36-6.4-2.04-9.47-2.04-2.42,0-4.31.52-5.68,1.56s-2.04,2.48-2.04,4.33c0,1.36.25,2.48.75,3.35s1.35,1.67,2.54,2.39c1.19.73,3.02,1.53,5.47,2.41,4.12,1.47,6.96,3.05,8.51,4.73,1.55,1.69,2.33,3.87,2.33,6.56Z" style="fill: #95c11f; stroke-width: 0px;"/>
    <path d="M313.58,105.91v-39.33h4.57v35.19h17.35v4.14h-21.92Z" style="fill: #95c11f; stroke-width: 0px;"/>
    <path d="M368.88,105.91l-4.9-12.51h-15.76l-4.84,12.51h-4.63l15.55-39.49h3.85l15.47,39.49h-4.73ZM362.56,89.29l-4.57-12.19c-.59-1.54-1.2-3.43-1.83-5.68-.39,1.72-.96,3.61-1.69,5.68l-4.63,12.19h12.72Z" style="fill: #95c11f; stroke-width: 0px;"/>
    <path d="M403.47,66.58h4.92l-14.18,39.33h-4.52l-14.1-39.33h4.84l9.04,25.45c1.04,2.92,1.87,5.77,2.48,8.53.65-2.91,1.49-5.8,2.53-8.69l8.99-25.29Z" style="fill: #95c11f; stroke-width: 0px;"/>
  </g>
  <g>
    <rect x="38.67" y="74.25" width="30.25" height="4.94" style="fill: #95c11f; stroke-width: 0px;"/>
    <path d="M68.89,33.7h-.75c-1.76.25-3.52.75-5.03,1.76-.5-1.76-1.51-3.27-2.77-4.28-1.76-1.51-4.03-2.52-6.54-2.52s-4.78,1.01-6.54,2.52c-1.51,1.26-2.26,2.52-3.02,4.28-1.26-1.01-3.02-1.51-4.78-1.76h-.76c-5.54,0-10.06,4.53-10.06,10.07s4.53,10.06,10.06,10.06v17.62h30.2v-17.62c5.54,0,10.07-4.53,10.07-10.06s-4.53-10.07-10.07-10.07" style="fill: #95c11f; stroke-width: 0px;"/>
    <path d="M73.93,58.11v23.4c0,1.51-1.01,2.52-2.52,2.52h-35.23c-1.51,0-2.52-1.01-2.52-2.52v-23.4c-5.79-2.26-10.07-7.8-10.07-14.34,0-8.31,6.79-15.1,15.1-15.1,1.26,0,2.27.25,3.52.5,2.77-3.52,6.79-5.54,11.58-5.54s8.81,2.01,11.57,5.54c1.26-.25,2.26-.5,3.52-.5,8.31,0,15.1,6.79,15.1,15.1,0,6.54-4.28,12.08-10.07,14.34M18.09.04L0,18.12v88.33h88.33l18.09-18.09V.04H18.09Z" style="fill: #95c11f; stroke-width: 0px;"/>
  </g>
  <g>
    <path d="M159.71,51.3h-27.33v-2.04l23.03-34.7h-21.98v-2.58h25.66v2.04l-23.08,34.7h23.7v2.58Z" style="fill: #878787; stroke-width: 0px;"/>
    <path d="M170.23,51.3h-2.74V11.97h21.55v2.53h-18.8v16.68h17.75v2.56h-17.75v17.57Z" style="fill: #878787; stroke-width: 0px;"/>
    <path d="M231.16,41.16c0,3.28-1.21,5.88-3.62,7.8-2.41,1.92-5.62,2.88-9.62,2.88-4.81,0-8.49-.53-11.06-1.59v-2.74c2.83,1.2,6.45,1.8,10.84,1.8,3.23,0,5.79-.74,7.68-2.22,1.89-1.48,2.84-3.42,2.84-5.82,0-1.49-.31-2.72-.94-3.7-.63-.98-1.65-1.87-3.07-2.68-1.42-.81-3.5-1.68-6.24-2.61-4.02-1.38-6.79-2.87-8.33-4.48s-2.3-3.74-2.3-6.42c0-2.94,1.15-5.34,3.46-7.2,2.3-1.86,5.27-2.78,8.89-2.78s7.17.7,10.41,2.1l-1,2.37c-3.26-1.36-6.38-2.04-9.36-2.04s-5.22.67-6.94,2.02-2.58,3.17-2.58,5.49c0,1.45.26,2.65.79,3.58.53.93,1.39,1.77,2.6,2.52,1.2.74,3.26,1.64,6.19,2.68,3.07,1.06,5.37,2.08,6.91,3.08,1.54,1,2.67,2.12,3.38,3.39.71,1.26,1.06,2.79,1.06,4.59Z" style="fill: #878787; stroke-width: 0px;"/>
    <path d="M249.72,51.3h-2.77V14.55h-12.78v-2.58h28.33v2.58h-12.78v36.75Z" style="fill: #878787; stroke-width: 0px;"/>
    <path d="M287.28,37.42h-15.98l-5.49,13.88h-3.04l15.82-39.49h1.75l15.5,39.49h-3.09l-5.46-13.88ZM272.29,34.95h14.07l-5.35-14.18c-.45-1.11-.99-2.65-1.61-4.63-.48,1.72-1.01,3.28-1.59,4.68l-5.51,14.12Z" style="fill: #878787; stroke-width: 0px;"/>
    <path d="M304.14,34.17v17.14h-2.74V11.97h9.36c4.88,0,8.48.9,10.81,2.7,2.33,1.8,3.5,4.52,3.5,8.14,0,2.64-.7,4.86-2.08,6.67-1.39,1.81-3.5,3.11-6.33,3.9l10.68,17.92h-3.28l-10.14-17.14h-9.77ZM304.14,31.8h7.51c3.32,0,5.89-.74,7.72-2.22s2.74-3.66,2.74-6.55-.9-5.17-2.69-6.54c-1.79-1.36-4.72-2.04-8.77-2.04h-6.51v17.35Z" style="fill: #878787; stroke-width: 0px;"/>
    <path d="M353.08,37.42h-15.98l-5.49,13.88h-3.04l15.82-39.49h1.75l15.5,39.49h-3.09l-5.46-13.88ZM338.09,34.95h14.07l-5.35-14.18c-.45-1.11-.99-2.65-1.61-4.63-.48,1.72-1.01,3.28-1.59,4.68l-5.51,14.12ZM342.13,8.39c1.31-1.42,2.6-2.95,3.89-4.61,1.28-1.66,2.16-2.92,2.62-3.78h3.79v.46c-.65.93-1.75,2.17-3.3,3.71-1.55,1.54-3.26,3.09-5.12,4.65h-1.88v-.43Z" style="fill: #878787; stroke-width: 0px;"/>
  </g>
</svg>